<svg width="21" height="21" viewBox="0 0 21 21" fill="none" xmlns="http://www.w3.org/2000/svg">
<path d="M10.5002 0.0833282C4.76058 0.0833282 0.0834961 4.76041 0.0834961 10.5C0.0834961 16.2396 4.76058 20.9167 10.5002 20.9167C16.2397 20.9167 20.9168 16.2396 20.9168 10.5C20.9168 4.76041 16.2397 0.0833282 10.5002 0.0833282ZM15.4793 8.10416L9.57308 14.0104C9.42659 14.1567 9.22803 14.2389 9.021 14.2389C8.81396 14.2389 8.6154 14.1567 8.46891 14.0104L5.521 11.0625C5.3757 10.9155 5.29422 10.7171 5.29422 10.5104C5.29422 10.3037 5.3757 10.1053 5.521 9.95833C5.82308 9.65624 6.32308 9.65624 6.62516 9.95833L9.021 12.3542L14.3752 7C14.6772 6.69791 15.1772 6.69791 15.4793 7C15.7814 7.30208 15.7814 7.79166 15.4793 8.10416Z" fill="#D1A658"/>
</svg>
